<!DOCTYPE svg PUBLIC "-//W3C//DTD SVG 1.1//EN" "http://www.w3.org/Graphics/SVG/1.1/DTD/svg11.dtd">
<!-- Uploaded to: SVG Repo, www.svgrepo.com, Transformed by: SVG Repo Mixer Tools -->
<svg fill="#FF6600" height="800px" width="800px" version="1.1" id="Layer_1" xmlns="http://www.w3.org/2000/svg" xmlns:xlink="http://www.w3.org/1999/xlink" viewBox="0 0 508.171 508.171" xml:space="preserve">
<g id="SVGRepo_bgCarrier" stroke-width="0"/>
<g id="SVGRepo_tracerCarrier" stroke-linecap="round" stroke-linejoin="round"/>
<g id="SVGRepo_iconCarrier"> <g> <g> <path d="M488.752,294.838h-10.667v-10.667c0-5.888-4.779-10.667-10.667-10.667H434.31 c-11.392-94.763-168.917-166.613-175.872-169.749c-1.365-0.619-2.837-0.917-4.309-0.917c29.397-0.021,53.291-23.936,53.291-53.333 c0-20.864-12.331-39.915-31.445-48.555c-4.075-1.835-8.811-0.96-11.947,2.176c-3.136,3.136-4.011,7.893-2.197,11.925 c1.941,4.245,2.923,8.661,2.923,13.12c0,17.643-14.357,32-32,32c-4.459,0-8.875-0.96-13.099-2.88 c-4.075-1.835-8.811-0.96-11.947,2.176c-3.136,3.136-4.011,7.893-2.197,11.925c8.64,19.072,27.669,31.424,48.533,31.445 c-1.472,0-2.944,0.299-4.309,0.917c-6.976,3.115-164.48,74.987-175.872,169.749H40.752c-5.888,0-10.667,4.779-10.667,10.667 v10.667H19.419c-5.888,0-10.667,4.779-10.667,10.667v192c0,5.888,4.779,10.667,10.667,10.667h170.667 c5.888,0,10.667-4.779,10.667-10.667v-85.333c0-4.8-3.157-8.853-7.509-10.197c10.005-17.067,41.557-34.283,60.843-42.325 c19.285,8,50.859,25.237,60.864,42.304c-4.373,1.365-7.531,5.419-7.531,10.219v85.333c0,5.888,4.779,10.667,10.667,10.667h170.667 c5.888,0,10.667-4.779,10.667-10.667v-192C499.419,299.617,494.64,294.838,488.752,294.838z"/> </g> </g> </g>
</svg>